<svg width="48" height="48" viewBox="0 0 48 48" fill="none" xmlns="http://www.w3.org/2000/svg">
    <g clip-path="url(#clip0)">
        <rect width="48" height="48" fill="#E74011"/>
        <path fill-rule="evenodd" clip-rule="evenodd"
              d="M23.3465 7.40772C23.9586 6.417 25.4272 6.5041 25.9174 7.56107L30.319 17.0512L37.9042 11.1997C39.0016 10.3531 40.552 11.3659 40.2165 12.7114L35.0121 33.5895C34.8379 34.2884 34.1809 34.7562 33.4637 34.6926L12.5486 32.8355C11.8298 32.7717 11.265 32.1931 11.2185 31.4731L9.89596 11.0244C9.80678 9.64553 11.5031 8.92341 12.4351 9.94349L18.01 16.0451L23.3465 7.40772ZM24.4093 11.2168L19.4777 19.1988C18.9674 20.0247 17.8087 20.1334 17.1538 19.4166L13.0614 14.9375L14.0388 30.0501L32.4908 31.6885L36.3925 16.0364L30.6631 20.4563C29.9203 21.0294 28.8377 20.7647 28.443 19.9137L24.4093 11.2168ZM11.216 38.0629C11.216 37.2604 11.8665 36.6098 12.6691 36.6098H32.5787C33.3813 36.6098 34.0318 37.2604 34.0318 38.0629C34.0318 38.8655 33.3813 39.5161 32.5787 39.5161H12.6691C11.8665 39.5161 11.216 38.8655 11.216 38.0629Z"
              fill="#FFE500"/>
    </g>
    <defs>
        <clipPath id="clip0">
            <rect width="48" height="48" rx="5" fill="white"/>
        </clipPath>
    </defs>
</svg>
